<mxfile host="app.diagrams.net" modified="2024-04-23T13:44:51.997Z" agent="Mozilla/5.0 (Windows NT 10.0; Win64; x64) AppleWebKit/537.36 (KHTML, like Gecko) Chrome/124.0.0.0 Safari/537.36" etag="39eVwZ1SnuUiBBRUtT2m" version="24.2.8" type="github" pages="3">
  <diagram name="Page-1" id="o4qcmUTRorN4Si5h8oao">
    <mxGraphModel dx="744" dy="796" grid="1" gridSize="10" guides="1" tooltips="1" connect="1" arrows="1" fold="1" page="1" pageScale="1" pageWidth="850" pageHeight="1100" math="0" shadow="0">
      <root>
        <mxCell id="0" />
        <mxCell id="1" parent="0" />
        <mxCell id="J26nXhvenRR-qBKzixtI-1" value="Asuntos" style="rounded=0;whiteSpace=wrap;html=1;fillColor=#66B2FF;" vertex="1" parent="1">
          <mxGeometry x="240" y="270" width="120" height="60" as="geometry" />
        </mxCell>
        <mxCell id="J26nXhvenRR-qBKzixtI-2" value="Cliente" style="rounded=0;whiteSpace=wrap;html=1;fillColor=#66B2FF;" vertex="1" parent="1">
          <mxGeometry x="620" y="270" width="120" height="60" as="geometry" />
        </mxCell>
        <mxCell id="J26nXhvenRR-qBKzixtI-3" value="Procurador" style="rounded=0;whiteSpace=wrap;html=1;fillColor=#66B2FF;" vertex="1" parent="1">
          <mxGeometry x="240" y="510" width="120" height="60" as="geometry" />
        </mxCell>
        <mxCell id="J26nXhvenRR-qBKzixtI-4" value="Tiene" style="rhombus;whiteSpace=wrap;html=1;fillColor=#FFFF99;" vertex="1" parent="1">
          <mxGeometry x="450" y="260" width="80" height="80" as="geometry" />
        </mxCell>
        <mxCell id="J26nXhvenRR-qBKzixtI-5" value="Lleva" style="rhombus;whiteSpace=wrap;html=1;fillColor=#FFFF99;" vertex="1" parent="1">
          <mxGeometry x="260" y="390" width="80" height="80" as="geometry" />
        </mxCell>
        <mxCell id="J26nXhvenRR-qBKzixtI-6" value="" style="endArrow=none;html=1;rounded=0;entryX=0;entryY=0.5;entryDx=0;entryDy=0;exitX=1;exitY=0.5;exitDx=0;exitDy=0;" edge="1" parent="1" source="J26nXhvenRR-qBKzixtI-1" target="J26nXhvenRR-qBKzixtI-4">
          <mxGeometry width="50" height="50" relative="1" as="geometry">
            <mxPoint x="360" y="310" as="sourcePoint" />
            <mxPoint x="400" y="260" as="targetPoint" />
          </mxGeometry>
        </mxCell>
        <mxCell id="J26nXhvenRR-qBKzixtI-7" value="" style="endArrow=none;html=1;rounded=0;exitX=1;exitY=0.5;exitDx=0;exitDy=0;" edge="1" parent="1" source="J26nXhvenRR-qBKzixtI-4">
          <mxGeometry width="50" height="50" relative="1" as="geometry">
            <mxPoint x="570" y="350" as="sourcePoint" />
            <mxPoint x="620" y="300" as="targetPoint" />
          </mxGeometry>
        </mxCell>
        <mxCell id="J26nXhvenRR-qBKzixtI-10" value="" style="endArrow=none;html=1;rounded=0;entryX=0.5;entryY=1;entryDx=0;entryDy=0;exitX=0.5;exitY=0;exitDx=0;exitDy=0;" edge="1" parent="1" source="J26nXhvenRR-qBKzixtI-5" target="J26nXhvenRR-qBKzixtI-1">
          <mxGeometry width="50" height="50" relative="1" as="geometry">
            <mxPoint x="290" y="400" as="sourcePoint" />
            <mxPoint x="340" y="350" as="targetPoint" />
          </mxGeometry>
        </mxCell>
        <mxCell id="J26nXhvenRR-qBKzixtI-11" value="" style="endArrow=none;html=1;rounded=0;exitX=0.5;exitY=0;exitDx=0;exitDy=0;entryX=0.5;entryY=1;entryDx=0;entryDy=0;" edge="1" parent="1" source="J26nXhvenRR-qBKzixtI-3" target="J26nXhvenRR-qBKzixtI-5">
          <mxGeometry width="50" height="50" relative="1" as="geometry">
            <mxPoint x="260" y="510" as="sourcePoint" />
            <mxPoint x="310" y="460" as="targetPoint" />
          </mxGeometry>
        </mxCell>
        <mxCell id="J26nXhvenRR-qBKzixtI-12" value="NºExpediente PK" style="ellipse;whiteSpace=wrap;html=1;fillColor=#33FF33;" vertex="1" parent="1">
          <mxGeometry x="390" y="190" width="80" height="50" as="geometry" />
        </mxCell>
        <mxCell id="J26nXhvenRR-qBKzixtI-13" value="" style="endArrow=none;html=1;rounded=0;exitX=1;exitY=0;exitDx=0;exitDy=0;" edge="1" parent="1" source="J26nXhvenRR-qBKzixtI-1">
          <mxGeometry width="50" height="50" relative="1" as="geometry">
            <mxPoint x="380" y="290" as="sourcePoint" />
            <mxPoint x="430" y="240" as="targetPoint" />
          </mxGeometry>
        </mxCell>
        <mxCell id="J26nXhvenRR-qBKzixtI-14" value="FInicio" style="ellipse;whiteSpace=wrap;html=1;fillColor=#66FF66;" vertex="1" parent="1">
          <mxGeometry x="160" y="200" width="80" height="50" as="geometry" />
        </mxCell>
        <mxCell id="J26nXhvenRR-qBKzixtI-15" value="FFin" style="ellipse;whiteSpace=wrap;html=1;fillColor=#66FF66;" vertex="1" parent="1">
          <mxGeometry x="270" y="180" width="80" height="50" as="geometry" />
        </mxCell>
        <mxCell id="J26nXhvenRR-qBKzixtI-16" value="" style="endArrow=none;html=1;rounded=0;exitX=0.5;exitY=0;exitDx=0;exitDy=0;" edge="1" parent="1" source="J26nXhvenRR-qBKzixtI-1">
          <mxGeometry width="50" height="50" relative="1" as="geometry">
            <mxPoint x="260" y="280" as="sourcePoint" />
            <mxPoint x="310" y="230" as="targetPoint" />
          </mxGeometry>
        </mxCell>
        <mxCell id="J26nXhvenRR-qBKzixtI-18" value="" style="endArrow=none;html=1;rounded=0;exitX=0;exitY=0.5;exitDx=0;exitDy=0;" edge="1" parent="1" source="J26nXhvenRR-qBKzixtI-1">
          <mxGeometry width="50" height="50" relative="1" as="geometry">
            <mxPoint x="150" y="300" as="sourcePoint" />
            <mxPoint x="200" y="250" as="targetPoint" />
          </mxGeometry>
        </mxCell>
        <mxCell id="J26nXhvenRR-qBKzixtI-20" value="1" style="text;html=1;align=center;verticalAlign=middle;whiteSpace=wrap;rounded=0;" vertex="1" parent="1">
          <mxGeometry x="365" y="270" width="60" height="30" as="geometry" />
        </mxCell>
        <mxCell id="J26nXhvenRR-qBKzixtI-21" value="1" style="text;html=1;align=center;verticalAlign=middle;whiteSpace=wrap;rounded=0;" vertex="1" parent="1">
          <mxGeometry x="560" y="270" width="60" height="30" as="geometry" />
        </mxCell>
        <mxCell id="J26nXhvenRR-qBKzixtI-22" value="1" style="text;html=1;align=center;verticalAlign=middle;whiteSpace=wrap;rounded=0;" vertex="1" parent="1">
          <mxGeometry x="560" y="300" width="60" height="30" as="geometry" />
        </mxCell>
        <mxCell id="J26nXhvenRR-qBKzixtI-23" value="n" style="text;html=1;align=center;verticalAlign=middle;whiteSpace=wrap;rounded=0;" vertex="1" parent="1">
          <mxGeometry x="365" y="300" width="60" height="30" as="geometry" />
        </mxCell>
        <mxCell id="J26nXhvenRR-qBKzixtI-24" value="1:N" style="text;html=1;align=center;verticalAlign=middle;whiteSpace=wrap;rounded=0;" vertex="1" parent="1">
          <mxGeometry x="490" y="220" width="60" height="30" as="geometry" />
        </mxCell>
        <mxCell id="J26nXhvenRR-qBKzixtI-25" value="1" style="text;html=1;align=center;verticalAlign=middle;whiteSpace=wrap;rounded=0;" vertex="1" parent="1">
          <mxGeometry x="320" y="480" width="60" height="30" as="geometry" />
        </mxCell>
        <mxCell id="J26nXhvenRR-qBKzixtI-26" value="n" style="text;html=1;align=center;verticalAlign=middle;whiteSpace=wrap;rounded=0;" vertex="1" parent="1">
          <mxGeometry x="305" y="330" width="60" height="30" as="geometry" />
        </mxCell>
        <mxCell id="J26nXhvenRR-qBKzixtI-27" value="1" style="text;html=1;align=center;verticalAlign=middle;whiteSpace=wrap;rounded=0;" vertex="1" parent="1">
          <mxGeometry x="230" y="330" width="60" height="30" as="geometry" />
        </mxCell>
        <mxCell id="J26nXhvenRR-qBKzixtI-28" value="n" style="text;html=1;align=center;verticalAlign=middle;whiteSpace=wrap;rounded=0;" vertex="1" parent="1">
          <mxGeometry x="230" y="480" width="60" height="30" as="geometry" />
        </mxCell>
        <mxCell id="J26nXhvenRR-qBKzixtI-29" value="N:M" style="text;html=1;align=center;verticalAlign=middle;whiteSpace=wrap;rounded=0;" vertex="1" parent="1">
          <mxGeometry x="350" y="415" width="60" height="30" as="geometry" />
        </mxCell>
        <mxCell id="J26nXhvenRR-qBKzixtI-30" value="Estado" style="ellipse;whiteSpace=wrap;html=1;fillColor=#66FF66;" vertex="1" parent="1">
          <mxGeometry x="470" y="80" width="80" height="50" as="geometry" />
        </mxCell>
        <mxCell id="J26nXhvenRR-qBKzixtI-31" value="" style="endArrow=none;html=1;rounded=0;exitX=0.5;exitY=0;exitDx=0;exitDy=0;" edge="1" parent="1" source="J26nXhvenRR-qBKzixtI-4">
          <mxGeometry width="50" height="50" relative="1" as="geometry">
            <mxPoint x="509.28999999999985" y="258.55999999999995" as="sourcePoint" />
            <mxPoint x="509.61" y="130" as="targetPoint" />
          </mxGeometry>
        </mxCell>
        <mxCell id="J26nXhvenRR-qBKzixtI-35" value="Dirección" style="ellipse;whiteSpace=wrap;html=1;fillColor=#66FF66;" vertex="1" parent="1">
          <mxGeometry x="730" y="190" width="80" height="50" as="geometry" />
        </mxCell>
        <mxCell id="J26nXhvenRR-qBKzixtI-36" value="" style="endArrow=none;html=1;rounded=0;exitX=1;exitY=0;exitDx=0;exitDy=0;" edge="1" parent="1">
          <mxGeometry width="50" height="50" relative="1" as="geometry">
            <mxPoint x="700" y="270" as="sourcePoint" />
            <mxPoint x="770" y="240" as="targetPoint" />
          </mxGeometry>
        </mxCell>
        <mxCell id="J26nXhvenRR-qBKzixtI-37" value="Nombre" style="ellipse;whiteSpace=wrap;html=1;fillColor=#66FF66;" vertex="1" parent="1">
          <mxGeometry x="610" y="180" width="80" height="50" as="geometry" />
        </mxCell>
        <mxCell id="J26nXhvenRR-qBKzixtI-38" value="" style="endArrow=none;html=1;rounded=0;exitX=0.5;exitY=0;exitDx=0;exitDy=0;" edge="1" parent="1">
          <mxGeometry width="50" height="50" relative="1" as="geometry">
            <mxPoint x="640" y="270" as="sourcePoint" />
            <mxPoint x="650" y="230" as="targetPoint" />
          </mxGeometry>
        </mxCell>
        <mxCell id="J26nXhvenRR-qBKzixtI-39" value="DNI&lt;div&gt;PK&lt;/div&gt;" style="ellipse;whiteSpace=wrap;html=1;fillColor=#66FF66;" vertex="1" parent="1">
          <mxGeometry x="650" y="90" width="80" height="50" as="geometry" />
        </mxCell>
        <mxCell id="J26nXhvenRR-qBKzixtI-40" value="" style="endArrow=none;html=1;rounded=0;exitX=0.914;exitY=-0.024;exitDx=0;exitDy=0;exitPerimeter=0;" edge="1" parent="1">
          <mxGeometry width="50" height="50" relative="1" as="geometry">
            <mxPoint x="690" y="269" as="sourcePoint" />
            <mxPoint x="690" y="140" as="targetPoint" />
          </mxGeometry>
        </mxCell>
        <mxCell id="J26nXhvenRR-qBKzixtI-41" value="Dirección" style="ellipse;whiteSpace=wrap;html=1;fillColor=#66FF66;" vertex="1" parent="1">
          <mxGeometry x="250" y="620" width="80" height="50" as="geometry" />
        </mxCell>
        <mxCell id="J26nXhvenRR-qBKzixtI-42" value="" style="endArrow=none;html=1;rounded=0;exitX=1;exitY=0;exitDx=0;exitDy=0;entryX=0.5;entryY=1;entryDx=0;entryDy=0;" edge="1" parent="1" target="J26nXhvenRR-qBKzixtI-3">
          <mxGeometry width="50" height="50" relative="1" as="geometry">
            <mxPoint x="290" y="620" as="sourcePoint" />
            <mxPoint x="360" y="590" as="targetPoint" />
          </mxGeometry>
        </mxCell>
        <mxCell id="J26nXhvenRR-qBKzixtI-43" value="Nombre" style="ellipse;whiteSpace=wrap;html=1;fillColor=#66FF66;" vertex="1" parent="1">
          <mxGeometry x="410" y="560" width="80" height="50" as="geometry" />
        </mxCell>
        <mxCell id="J26nXhvenRR-qBKzixtI-44" value="" style="endArrow=none;html=1;rounded=0;exitX=1;exitY=1;exitDx=0;exitDy=0;" edge="1" parent="1" source="J26nXhvenRR-qBKzixtI-3">
          <mxGeometry width="50" height="50" relative="1" as="geometry">
            <mxPoint x="400" y="620" as="sourcePoint" />
            <mxPoint x="410" y="580" as="targetPoint" />
          </mxGeometry>
        </mxCell>
        <mxCell id="J26nXhvenRR-qBKzixtI-45" value="DNI&lt;div&gt;PK&lt;/div&gt;" style="ellipse;whiteSpace=wrap;html=1;fillColor=#66FF66;" vertex="1" parent="1">
          <mxGeometry x="450" y="470" width="80" height="50" as="geometry" />
        </mxCell>
        <mxCell id="J26nXhvenRR-qBKzixtI-46" value="" style="endArrow=none;html=1;rounded=0;entryX=0;entryY=0.5;entryDx=0;entryDy=0;exitX=1;exitY=0.5;exitDx=0;exitDy=0;" edge="1" parent="1" source="J26nXhvenRR-qBKzixtI-3" target="J26nXhvenRR-qBKzixtI-45">
          <mxGeometry width="50" height="50" relative="1" as="geometry">
            <mxPoint x="400" y="550" as="sourcePoint" />
            <mxPoint x="410" y="421" as="targetPoint" />
          </mxGeometry>
        </mxCell>
        <mxCell id="K8ierEtSN8HB9PumUeJH-1" value="(1,n)" style="text;html=1;align=center;verticalAlign=middle;resizable=0;points=[];autosize=1;strokeColor=none;fillColor=none;" vertex="1" parent="1">
          <mxGeometry x="420" y="348" width="50" height="30" as="geometry" />
        </mxCell>
        <mxCell id="K8ierEtSN8HB9PumUeJH-2" value="(1,1)" style="text;html=1;align=center;verticalAlign=middle;resizable=0;points=[];autosize=1;strokeColor=none;fillColor=none;" vertex="1" parent="1">
          <mxGeometry x="500" y="348" width="50" height="30" as="geometry" />
        </mxCell>
        <mxCell id="K8ierEtSN8HB9PumUeJH-3" value="(1,n)" style="text;html=1;align=center;verticalAlign=middle;resizable=0;points=[];autosize=1;strokeColor=none;fillColor=none;" vertex="1" parent="1">
          <mxGeometry x="190" y="385" width="50" height="30" as="geometry" />
        </mxCell>
        <mxCell id="K8ierEtSN8HB9PumUeJH-4" value="(1,n)" style="text;html=1;align=center;verticalAlign=middle;resizable=0;points=[];autosize=1;strokeColor=none;fillColor=none;" vertex="1" parent="1">
          <mxGeometry x="190" y="440" width="50" height="30" as="geometry" />
        </mxCell>
      </root>
    </mxGraphModel>
  </diagram>
  <diagram id="Mjtw0TixIv0U8FywkOg-" name="Page-2">
    <mxGraphModel dx="401" dy="1528" grid="1" gridSize="10" guides="1" tooltips="1" connect="1" arrows="1" fold="1" page="1" pageScale="1" pageWidth="850" pageHeight="1100" math="0" shadow="0">
      <root>
        <mxCell id="0" />
        <mxCell id="1" parent="0" />
        <mxCell id="STr9C8-EfW_SqJSL0Tbl-1" value="Zoo" style="rounded=0;whiteSpace=wrap;html=1;fillColor=#66B2FF;" vertex="1" parent="1">
          <mxGeometry x="60" y="150" width="120" height="60" as="geometry" />
        </mxCell>
        <mxCell id="nD9G3Eu6GK3-HGumFn62-1" value="Animales" style="rounded=0;whiteSpace=wrap;html=1;fillColor=#66B2FF;" vertex="1" parent="1">
          <mxGeometry x="370" y="150" width="120" height="60" as="geometry" />
        </mxCell>
        <mxCell id="nD9G3Eu6GK3-HGumFn62-2" value="Poseen" style="rhombus;whiteSpace=wrap;html=1;fillColor=#FFFF99;" vertex="1" parent="1">
          <mxGeometry x="230" y="140" width="80" height="80" as="geometry" />
        </mxCell>
        <mxCell id="nD9G3Eu6GK3-HGumFn62-3" value="" style="endArrow=none;html=1;rounded=0;" edge="1" parent="1" target="nD9G3Eu6GK3-HGumFn62-2">
          <mxGeometry width="50" height="50" relative="1" as="geometry">
            <mxPoint x="180" y="180" as="sourcePoint" />
            <mxPoint x="230" y="130" as="targetPoint" />
          </mxGeometry>
        </mxCell>
        <mxCell id="nD9G3Eu6GK3-HGumFn62-4" value="" style="endArrow=none;html=1;rounded=0;exitX=1;exitY=0.5;exitDx=0;exitDy=0;" edge="1" parent="1" source="nD9G3Eu6GK3-HGumFn62-2">
          <mxGeometry width="50" height="50" relative="1" as="geometry">
            <mxPoint x="320" y="180" as="sourcePoint" />
            <mxPoint x="370" y="179.5" as="targetPoint" />
          </mxGeometry>
        </mxCell>
        <mxCell id="nD9G3Eu6GK3-HGumFn62-5" value="Ciudad" style="ellipse;whiteSpace=wrap;html=1;fillColor=#33FF33;" vertex="1" parent="1">
          <mxGeometry y="230" width="80" height="50" as="geometry" />
        </mxCell>
        <mxCell id="nD9G3Eu6GK3-HGumFn62-6" value="País" style="ellipse;whiteSpace=wrap;html=1;fillColor=#33FF33;" vertex="1" parent="1">
          <mxGeometry x="30" y="280" width="80" height="50" as="geometry" />
        </mxCell>
        <mxCell id="nD9G3Eu6GK3-HGumFn62-7" value="Nombre&lt;div&gt;PK&lt;/div&gt;" style="ellipse;whiteSpace=wrap;html=1;fillColor=#33FF33;" vertex="1" parent="1">
          <mxGeometry x="20" y="50" width="80" height="50" as="geometry" />
        </mxCell>
        <mxCell id="nD9G3Eu6GK3-HGumFn62-8" value="Tamaño" style="ellipse;whiteSpace=wrap;html=1;fillColor=#33FF33;" vertex="1" parent="1">
          <mxGeometry x="110" y="300" width="80" height="50" as="geometry" />
        </mxCell>
        <mxCell id="nD9G3Eu6GK3-HGumFn62-9" value="Presupuesto" style="ellipse;whiteSpace=wrap;html=1;fillColor=#33FF33;" vertex="1" parent="1">
          <mxGeometry x="150" y="250" width="80" height="50" as="geometry" />
        </mxCell>
        <mxCell id="nD9G3Eu6GK3-HGumFn62-10" value="" style="endArrow=none;html=1;rounded=0;entryX=0.5;entryY=1;entryDx=0;entryDy=0;" edge="1" parent="1" target="STr9C8-EfW_SqJSL0Tbl-1">
          <mxGeometry width="50" height="50" relative="1" as="geometry">
            <mxPoint x="70" y="240" as="sourcePoint" />
            <mxPoint x="120" y="240" as="targetPoint" />
          </mxGeometry>
        </mxCell>
        <mxCell id="nD9G3Eu6GK3-HGumFn62-11" value="" style="endArrow=none;html=1;rounded=0;exitX=0.75;exitY=1;exitDx=0;exitDy=0;" edge="1" parent="1" source="STr9C8-EfW_SqJSL0Tbl-1">
          <mxGeometry width="50" height="50" relative="1" as="geometry">
            <mxPoint x="140" y="250" as="sourcePoint" />
            <mxPoint x="190" y="250" as="targetPoint" />
          </mxGeometry>
        </mxCell>
        <mxCell id="nD9G3Eu6GK3-HGumFn62-12" value="" style="endArrow=none;html=1;rounded=0;entryX=0.618;entryY=0.997;entryDx=0;entryDy=0;entryPerimeter=0;exitX=0.773;exitY=0.068;exitDx=0;exitDy=0;exitPerimeter=0;" edge="1" parent="1" source="nD9G3Eu6GK3-HGumFn62-6" target="STr9C8-EfW_SqJSL0Tbl-1">
          <mxGeometry width="50" height="50" relative="1" as="geometry">
            <mxPoint x="95" y="280" as="sourcePoint" />
            <mxPoint x="145" y="280" as="targetPoint" />
          </mxGeometry>
        </mxCell>
        <mxCell id="nD9G3Eu6GK3-HGumFn62-13" value="" style="endArrow=none;html=1;rounded=0;exitX=0.678;exitY=0.997;exitDx=0;exitDy=0;exitPerimeter=0;entryX=0.413;entryY=-0.044;entryDx=0;entryDy=0;entryPerimeter=0;" edge="1" parent="1" source="STr9C8-EfW_SqJSL0Tbl-1" target="nD9G3Eu6GK3-HGumFn62-8">
          <mxGeometry width="50" height="50" relative="1" as="geometry">
            <mxPoint x="110" y="290" as="sourcePoint" />
            <mxPoint x="160" y="290" as="targetPoint" />
          </mxGeometry>
        </mxCell>
        <mxCell id="nD9G3Eu6GK3-HGumFn62-14" value="" style="endArrow=none;html=1;rounded=0;entryX=0.5;entryY=0;entryDx=0;entryDy=0;" edge="1" parent="1" target="STr9C8-EfW_SqJSL0Tbl-1">
          <mxGeometry width="50" height="50" relative="1" as="geometry">
            <mxPoint x="70" y="100" as="sourcePoint" />
            <mxPoint x="120" y="100" as="targetPoint" />
          </mxGeometry>
        </mxCell>
        <mxCell id="nD9G3Eu6GK3-HGumFn62-15" value="Nombre Vulgar" style="ellipse;whiteSpace=wrap;html=1;fillColor=#33FF33;" vertex="1" parent="1">
          <mxGeometry x="350" y="510" width="80" height="50" as="geometry" />
        </mxCell>
        <mxCell id="nD9G3Eu6GK3-HGumFn62-16" value="Nombre científico&lt;div&gt;PK&lt;/div&gt;" style="ellipse;whiteSpace=wrap;html=1;fillColor=#33FF33;" vertex="1" parent="1">
          <mxGeometry x="380" y="560" width="80" height="50" as="geometry" />
        </mxCell>
        <mxCell id="nD9G3Eu6GK3-HGumFn62-17" value="Sexo" style="ellipse;whiteSpace=wrap;html=1;fillColor=#33FF33;" vertex="1" parent="1">
          <mxGeometry x="480" y="-2.5999999999999996" width="80" height="50" as="geometry" />
        </mxCell>
        <mxCell id="nD9G3Eu6GK3-HGumFn62-18" value="Familia" style="ellipse;whiteSpace=wrap;html=1;fillColor=#33FF33;" vertex="1" parent="1">
          <mxGeometry x="460" y="580" width="80" height="50" as="geometry" />
        </mxCell>
        <mxCell id="nD9G3Eu6GK3-HGumFn62-19" value="" style="endArrow=none;html=1;rounded=0;entryX=0.432;entryY=1.025;entryDx=0;entryDy=0;entryPerimeter=0;" edge="1" parent="1" target="4XD2extN7vKgeDmzvoqc-1">
          <mxGeometry width="50" height="50" relative="1" as="geometry">
            <mxPoint x="420" y="520" as="sourcePoint" />
            <mxPoint x="470" y="490" as="targetPoint" />
          </mxGeometry>
        </mxCell>
        <mxCell id="nD9G3Eu6GK3-HGumFn62-20" value="" style="endArrow=none;html=1;rounded=0;entryX=0.618;entryY=0.997;entryDx=0;entryDy=0;entryPerimeter=0;exitX=0.773;exitY=0.068;exitDx=0;exitDy=0;exitPerimeter=0;" edge="1" parent="1" source="nD9G3Eu6GK3-HGumFn62-16">
          <mxGeometry width="50" height="50" relative="1" as="geometry">
            <mxPoint x="445" y="560" as="sourcePoint" />
            <mxPoint x="484" y="490" as="targetPoint" />
          </mxGeometry>
        </mxCell>
        <mxCell id="nD9G3Eu6GK3-HGumFn62-21" value="" style="endArrow=none;html=1;rounded=0;exitX=0.678;exitY=0.997;exitDx=0;exitDy=0;exitPerimeter=0;entryX=0.413;entryY=-0.044;entryDx=0;entryDy=0;entryPerimeter=0;" edge="1" parent="1" target="nD9G3Eu6GK3-HGumFn62-18">
          <mxGeometry width="50" height="50" relative="1" as="geometry">
            <mxPoint x="491" y="490" as="sourcePoint" />
            <mxPoint x="510" y="570" as="targetPoint" />
          </mxGeometry>
        </mxCell>
        <mxCell id="nD9G3Eu6GK3-HGumFn62-22" value="" style="endArrow=none;html=1;rounded=0;entryX=0;entryY=0.5;entryDx=0;entryDy=0;" edge="1" parent="1" target="4XD2extN7vKgeDmzvoqc-1">
          <mxGeometry width="50" height="50" relative="1" as="geometry">
            <mxPoint x="350" y="430" as="sourcePoint" />
            <mxPoint x="400" y="480" as="targetPoint" />
          </mxGeometry>
        </mxCell>
        <mxCell id="nD9G3Eu6GK3-HGumFn62-23" value="¿Peligro Extinción?" style="ellipse;whiteSpace=wrap;html=1;fillColor=#33FF33;" vertex="1" parent="1">
          <mxGeometry x="520" y="510" width="80" height="50" as="geometry" />
        </mxCell>
        <mxCell id="nD9G3Eu6GK3-HGumFn62-24" value="" style="endArrow=none;html=1;rounded=0;exitX=0.75;exitY=1;exitDx=0;exitDy=0;" edge="1" parent="1">
          <mxGeometry width="50" height="50" relative="1" as="geometry">
            <mxPoint x="490" y="480" as="sourcePoint" />
            <mxPoint x="530" y="520" as="targetPoint" />
          </mxGeometry>
        </mxCell>
        <mxCell id="nD9G3Eu6GK3-HGumFn62-25" value="Nombre" style="ellipse;whiteSpace=wrap;html=1;fillColor=#33FF33;" vertex="1" parent="1">
          <mxGeometry x="280" y="400" width="80" height="50" as="geometry" />
        </mxCell>
        <mxCell id="nD9G3Eu6GK3-HGumFn62-27" value="Año Nacimiento" style="ellipse;whiteSpace=wrap;html=1;fillColor=#33FF33;" vertex="1" parent="1">
          <mxGeometry x="550" y="270" width="80" height="50" as="geometry" />
        </mxCell>
        <mxCell id="nD9G3Eu6GK3-HGumFn62-28" value="Pais Origen" style="ellipse;whiteSpace=wrap;html=1;fillColor=#33FF33;" vertex="1" parent="1">
          <mxGeometry x="550" y="178" width="80" height="50" as="geometry" />
        </mxCell>
        <mxCell id="nD9G3Eu6GK3-HGumFn62-29" value="Continente" style="ellipse;whiteSpace=wrap;html=1;fillColor=#33FF33;" vertex="1" parent="1">
          <mxGeometry x="540" y="70" width="80" height="50" as="geometry" />
        </mxCell>
        <mxCell id="nD9G3Eu6GK3-HGumFn62-30" value="Especie" style="ellipse;whiteSpace=wrap;html=1;fillColor=#33FF33;" vertex="1" parent="1">
          <mxGeometry x="400" y="-2.5999999999999996" width="80" height="50" as="geometry" />
        </mxCell>
        <mxCell id="nD9G3Eu6GK3-HGumFn62-31" value="Nº Identificacion" style="ellipse;whiteSpace=wrap;html=1;fillColor=#33FF33;" vertex="1" parent="1">
          <mxGeometry x="320" y="-2.5999999999999996" width="80" height="50" as="geometry" />
        </mxCell>
        <mxCell id="nD9G3Eu6GK3-HGumFn62-33" value="" style="endArrow=none;html=1;rounded=0;" edge="1" parent="1" source="nD9G3Eu6GK3-HGumFn62-1">
          <mxGeometry width="50" height="50" relative="1" as="geometry">
            <mxPoint x="416.66666666666663" y="140.73333333333338" as="sourcePoint" />
            <mxPoint x="370" y="47.4" as="targetPoint" />
          </mxGeometry>
        </mxCell>
        <mxCell id="nD9G3Eu6GK3-HGumFn62-34" value="" style="endArrow=none;html=1;rounded=0;exitX=0.5;exitY=0;exitDx=0;exitDy=0;" edge="1" parent="1" source="nD9G3Eu6GK3-HGumFn62-1">
          <mxGeometry width="50" height="50" relative="1" as="geometry">
            <mxPoint x="430" y="127.4" as="sourcePoint" />
            <mxPoint x="440" y="47.4" as="targetPoint" />
          </mxGeometry>
        </mxCell>
        <mxCell id="nD9G3Eu6GK3-HGumFn62-35" value="" style="endArrow=none;html=1;rounded=0;exitX=0.874;exitY=0.315;exitDx=0;exitDy=0;exitPerimeter=0;" edge="1" parent="1">
          <mxGeometry width="50" height="50" relative="1" as="geometry">
            <mxPoint x="459.91999999999996" y="152.59999999999994" as="sourcePoint" />
            <mxPoint x="510" y="47.4" as="targetPoint" />
          </mxGeometry>
        </mxCell>
        <mxCell id="nD9G3Eu6GK3-HGumFn62-36" value="" style="endArrow=none;html=1;rounded=0;exitX=0.5;exitY=0;exitDx=0;exitDy=0;entryX=1;entryY=1;entryDx=0;entryDy=0;" edge="1" parent="1" target="nD9G3Eu6GK3-HGumFn62-1">
          <mxGeometry width="50" height="50" relative="1" as="geometry">
            <mxPoint x="550" y="293.92" as="sourcePoint" />
            <mxPoint x="603.2" y="119.99999999999993" as="targetPoint" />
          </mxGeometry>
        </mxCell>
        <mxCell id="nD9G3Eu6GK3-HGumFn62-37" value="" style="endArrow=none;html=1;rounded=0;exitX=1;exitY=0.5;exitDx=0;exitDy=0;entryX=0.5;entryY=1;entryDx=0;entryDy=0;" edge="1" parent="1" source="nD9G3Eu6GK3-HGumFn62-1">
          <mxGeometry width="50" height="50" relative="1" as="geometry">
            <mxPoint x="555" y="370" as="sourcePoint" />
            <mxPoint x="550" y="200" as="targetPoint" />
          </mxGeometry>
        </mxCell>
        <mxCell id="nD9G3Eu6GK3-HGumFn62-38" value="" style="endArrow=none;html=1;rounded=0;entryX=0.663;entryY=0.939;entryDx=0;entryDy=0;entryPerimeter=0;exitX=1;exitY=0;exitDx=0;exitDy=0;" edge="1" parent="1" source="nD9G3Eu6GK3-HGumFn62-1">
          <mxGeometry width="50" height="50" relative="1" as="geometry">
            <mxPoint x="576.96" y="204.88" as="sourcePoint" />
            <mxPoint x="540.0000000000001" y="100.00000000000011" as="targetPoint" />
          </mxGeometry>
        </mxCell>
        <mxCell id="nD9G3Eu6GK3-HGumFn62-39" value="1" style="text;html=1;align=center;verticalAlign=middle;resizable=0;points=[];autosize=1;strokeColor=none;fillColor=none;" vertex="1" parent="1">
          <mxGeometry x="185" y="148" width="30" height="30" as="geometry" />
        </mxCell>
        <mxCell id="nD9G3Eu6GK3-HGumFn62-40" value="n" style="text;html=1;align=center;verticalAlign=middle;resizable=0;points=[];autosize=1;strokeColor=none;fillColor=none;" vertex="1" parent="1">
          <mxGeometry x="335" y="148" width="30" height="30" as="geometry" />
        </mxCell>
        <mxCell id="nD9G3Eu6GK3-HGumFn62-41" value="1" style="text;html=1;align=center;verticalAlign=middle;resizable=0;points=[];autosize=1;strokeColor=none;fillColor=none;" vertex="1" parent="1">
          <mxGeometry x="335" y="188" width="30" height="30" as="geometry" />
        </mxCell>
        <mxCell id="nD9G3Eu6GK3-HGumFn62-42" value="1" style="text;html=1;align=center;verticalAlign=middle;resizable=0;points=[];autosize=1;strokeColor=none;fillColor=none;" vertex="1" parent="1">
          <mxGeometry x="185" y="188" width="30" height="30" as="geometry" />
        </mxCell>
        <mxCell id="nD9G3Eu6GK3-HGumFn62-43" value="1:N" style="text;html=1;align=center;verticalAlign=middle;resizable=0;points=[];autosize=1;strokeColor=none;fillColor=none;" vertex="1" parent="1">
          <mxGeometry x="280" y="110" width="40" height="30" as="geometry" />
        </mxCell>
        <mxCell id="nD9G3Eu6GK3-HGumFn62-44" value="(1,1)" style="text;html=1;align=center;verticalAlign=middle;resizable=0;points=[];autosize=1;strokeColor=none;fillColor=none;" vertex="1" parent="1">
          <mxGeometry x="520" y="140" width="50" height="30" as="geometry" />
        </mxCell>
        <mxCell id="nD9G3Eu6GK3-HGumFn62-45" value="(0,n)" style="text;html=1;align=center;verticalAlign=middle;resizable=0;points=[];autosize=1;strokeColor=none;fillColor=none;" vertex="1" parent="1">
          <mxGeometry x="135" y="108" width="50" height="30" as="geometry" />
        </mxCell>
        <mxCell id="4XD2extN7vKgeDmzvoqc-1" value="Especie" style="rounded=0;whiteSpace=wrap;html=1;fillColor=#66B2FF;" vertex="1" parent="1">
          <mxGeometry x="410" y="420" width="120" height="60" as="geometry" />
        </mxCell>
        <mxCell id="4XD2extN7vKgeDmzvoqc-2" value="Forman" style="rhombus;whiteSpace=wrap;html=1;fillColor=#FFFF99;" vertex="1" parent="1">
          <mxGeometry x="400" y="280" width="80" height="80" as="geometry" />
        </mxCell>
        <mxCell id="4XD2extN7vKgeDmzvoqc-3" value="" style="endArrow=none;html=1;rounded=0;exitX=0.5;exitY=0;exitDx=0;exitDy=0;entryX=0.5;entryY=1;entryDx=0;entryDy=0;" edge="1" parent="1" source="4XD2extN7vKgeDmzvoqc-2" target="nD9G3Eu6GK3-HGumFn62-1">
          <mxGeometry width="50" height="50" relative="1" as="geometry">
            <mxPoint x="420" y="230.5" as="sourcePoint" />
            <mxPoint x="480" y="230" as="targetPoint" />
          </mxGeometry>
        </mxCell>
        <mxCell id="4XD2extN7vKgeDmzvoqc-4" value="" style="endArrow=none;html=1;rounded=0;exitX=0.416;exitY=-0.054;exitDx=0;exitDy=0;entryX=0.5;entryY=1;entryDx=0;entryDy=0;exitPerimeter=0;" edge="1" parent="1" source="4XD2extN7vKgeDmzvoqc-1" target="4XD2extN7vKgeDmzvoqc-2">
          <mxGeometry width="50" height="50" relative="1" as="geometry">
            <mxPoint x="425" y="410.5" as="sourcePoint" />
            <mxPoint x="485" y="410" as="targetPoint" />
          </mxGeometry>
        </mxCell>
        <mxCell id="4XD2extN7vKgeDmzvoqc-5" value="1" style="text;html=1;align=center;verticalAlign=middle;resizable=0;points=[];autosize=1;strokeColor=none;fillColor=none;" vertex="1" parent="1">
          <mxGeometry x="380" y="210" width="30" height="30" as="geometry" />
        </mxCell>
        <mxCell id="4XD2extN7vKgeDmzvoqc-6" value="1" style="text;html=1;align=center;verticalAlign=middle;resizable=0;points=[];autosize=1;strokeColor=none;fillColor=none;" vertex="1" parent="1">
          <mxGeometry x="410" y="390" width="30" height="30" as="geometry" />
        </mxCell>
        <mxCell id="4XD2extN7vKgeDmzvoqc-7" value="1" style="text;html=1;align=center;verticalAlign=middle;resizable=0;points=[];autosize=1;strokeColor=none;fillColor=none;" vertex="1" parent="1">
          <mxGeometry x="490" y="390" width="30" height="30" as="geometry" />
        </mxCell>
        <mxCell id="4XD2extN7vKgeDmzvoqc-8" value="n" style="text;html=1;align=center;verticalAlign=middle;resizable=0;points=[];autosize=1;strokeColor=none;fillColor=none;" vertex="1" parent="1">
          <mxGeometry x="450" y="210" width="30" height="30" as="geometry" />
        </mxCell>
        <mxCell id="4XD2extN7vKgeDmzvoqc-9" value="1:N" style="text;html=1;align=center;verticalAlign=middle;resizable=0;points=[];autosize=1;strokeColor=none;fillColor=none;" vertex="1" parent="1">
          <mxGeometry x="350" y="300" width="40" height="30" as="geometry" />
        </mxCell>
        <mxCell id="4XD2extN7vKgeDmzvoqc-10" value="(1,n)" style="text;html=1;align=center;verticalAlign=middle;resizable=0;points=[];autosize=1;strokeColor=none;fillColor=none;" vertex="1" parent="1">
          <mxGeometry x="470" y="350" width="50" height="30" as="geometry" />
        </mxCell>
        <mxCell id="4XD2extN7vKgeDmzvoqc-11" value="(1,1)" style="text;html=1;align=center;verticalAlign=middle;resizable=0;points=[];autosize=1;strokeColor=none;fillColor=none;" vertex="1" parent="1">
          <mxGeometry x="470" y="250" width="50" height="30" as="geometry" />
        </mxCell>
      </root>
    </mxGraphModel>
  </diagram>
  <diagram id="_4a8gE1ff9J7S1Vv1c0M" name="Page-3">
    <mxGraphModel dx="947" dy="1013" grid="1" gridSize="10" guides="1" tooltips="1" connect="1" arrows="1" fold="1" page="1" pageScale="1" pageWidth="850" pageHeight="1100" math="0" shadow="0">
      <root>
        <mxCell id="0" />
        <mxCell id="1" parent="0" />
        <mxCell id="YKKnT6eRW2hwLSaF0dDO-1" value="Patrón" style="rounded=0;whiteSpace=wrap;html=1;fillColor=#99CCFF;" vertex="1" parent="1">
          <mxGeometry x="370" y="10" width="120" height="60" as="geometry" />
        </mxCell>
        <mxCell id="TyNWA-aZAb7w46XQpe9P-1" value="Socios" style="rounded=0;whiteSpace=wrap;html=1;fillColor=#99CCFF;" vertex="1" parent="1">
          <mxGeometry x="50" y="200" width="120" height="60" as="geometry" />
        </mxCell>
        <mxCell id="TyNWA-aZAb7w46XQpe9P-2" value="Barcos" style="rounded=0;whiteSpace=wrap;html=1;fillColor=#99CCFF;" vertex="1" parent="1">
          <mxGeometry x="370" y="200" width="120" height="60" as="geometry" />
        </mxCell>
        <mxCell id="TyNWA-aZAb7w46XQpe9P-3" value="Salidas" style="rounded=0;whiteSpace=wrap;html=1;fillColor=#99CCFF;" vertex="1" parent="1">
          <mxGeometry x="370" y="530" width="120" height="60" as="geometry" />
        </mxCell>
        <mxCell id="TyNWA-aZAb7w46XQpe9P-4" value="Tienen" style="rhombus;whiteSpace=wrap;html=1;fillColor=#FFFF66;" vertex="1" parent="1">
          <mxGeometry x="230" y="190" width="80" height="80" as="geometry" />
        </mxCell>
        <mxCell id="TyNWA-aZAb7w46XQpe9P-5" value="Realizan" style="rhombus;whiteSpace=wrap;html=1;fillColor=#FFFF66;" vertex="1" parent="1">
          <mxGeometry x="390" y="350" width="80" height="80" as="geometry" />
        </mxCell>
        <mxCell id="TyNWA-aZAb7w46XQpe9P-6" value="DNI PK" style="ellipse;whiteSpace=wrap;html=1;fillColor=#33FF33;" vertex="1" parent="1">
          <mxGeometry x="10" y="380" width="70" height="40" as="geometry" />
        </mxCell>
        <mxCell id="TyNWA-aZAb7w46XQpe9P-7" value="Direccion" style="ellipse;whiteSpace=wrap;html=1;fillColor=#33FF33;" vertex="1" parent="1">
          <mxGeometry x="90" y="380" width="70" height="40" as="geometry" />
        </mxCell>
        <mxCell id="TyNWA-aZAb7w46XQpe9P-8" value="Nombre" style="ellipse;whiteSpace=wrap;html=1;fillColor=#33FF33;" vertex="1" parent="1">
          <mxGeometry y="320" width="70" height="40" as="geometry" />
        </mxCell>
        <mxCell id="TyNWA-aZAb7w46XQpe9P-9" value="" style="endArrow=none;html=1;rounded=0;entryX=0.25;entryY=1;entryDx=0;entryDy=0;" edge="1" parent="1" target="TyNWA-aZAb7w46XQpe9P-1">
          <mxGeometry width="50" height="50" relative="1" as="geometry">
            <mxPoint x="30" y="320" as="sourcePoint" />
            <mxPoint x="80" y="270" as="targetPoint" />
          </mxGeometry>
        </mxCell>
        <mxCell id="TyNWA-aZAb7w46XQpe9P-10" value="" style="endArrow=none;html=1;rounded=0;entryX=0.25;entryY=1;entryDx=0;entryDy=0;" edge="1" parent="1" source="TyNWA-aZAb7w46XQpe9P-6">
          <mxGeometry width="50" height="50" relative="1" as="geometry">
            <mxPoint x="70" y="320" as="sourcePoint" />
            <mxPoint x="120" y="260" as="targetPoint" />
          </mxGeometry>
        </mxCell>
        <mxCell id="TyNWA-aZAb7w46XQpe9P-11" value="" style="endArrow=none;html=1;rounded=0;entryX=0.75;entryY=1;entryDx=0;entryDy=0;" edge="1" parent="1" target="TyNWA-aZAb7w46XQpe9P-1">
          <mxGeometry width="50" height="50" relative="1" as="geometry">
            <mxPoint x="120" y="380" as="sourcePoint" />
            <mxPoint x="170" y="320" as="targetPoint" />
          </mxGeometry>
        </mxCell>
        <mxCell id="TyNWA-aZAb7w46XQpe9P-13" value="nombre" style="ellipse;whiteSpace=wrap;html=1;fillColor=#33FF33;" vertex="1" parent="1">
          <mxGeometry x="670" y="190" width="70" height="40" as="geometry" />
        </mxCell>
        <mxCell id="TyNWA-aZAb7w46XQpe9P-14" value="amarre" style="ellipse;whiteSpace=wrap;html=1;fillColor=#33FF33;" vertex="1" parent="1">
          <mxGeometry x="670" y="270" width="70" height="40" as="geometry" />
        </mxCell>
        <mxCell id="TyNWA-aZAb7w46XQpe9P-15" value="matricula" style="ellipse;whiteSpace=wrap;html=1;fillColor=#33FF33;" vertex="1" parent="1">
          <mxGeometry x="670" y="100" width="70" height="40" as="geometry" />
        </mxCell>
        <mxCell id="TyNWA-aZAb7w46XQpe9P-17" value="" style="endArrow=none;html=1;rounded=0;exitX=1;exitY=0.75;exitDx=0;exitDy=0;" edge="1" parent="1" source="TyNWA-aZAb7w46XQpe9P-2">
          <mxGeometry width="50" height="50" relative="1" as="geometry">
            <mxPoint x="620" y="340" as="sourcePoint" />
            <mxPoint x="670" y="290" as="targetPoint" />
          </mxGeometry>
        </mxCell>
        <mxCell id="TyNWA-aZAb7w46XQpe9P-18" value="" style="endArrow=none;html=1;rounded=0;exitX=1;exitY=0;exitDx=0;exitDy=0;entryX=0;entryY=0.5;entryDx=0;entryDy=0;" edge="1" parent="1" source="TyNWA-aZAb7w46XQpe9P-2" target="TyNWA-aZAb7w46XQpe9P-15">
          <mxGeometry width="50" height="50" relative="1" as="geometry">
            <mxPoint x="500" y="90" as="sourcePoint" />
            <mxPoint x="680" y="135" as="targetPoint" />
          </mxGeometry>
        </mxCell>
        <mxCell id="TyNWA-aZAb7w46XQpe9P-19" value="" style="endArrow=none;html=1;rounded=0;exitX=1;exitY=0.5;exitDx=0;exitDy=0;" edge="1" parent="1" source="TyNWA-aZAb7w46XQpe9P-2">
          <mxGeometry width="50" height="50" relative="1" as="geometry">
            <mxPoint x="500" y="290" as="sourcePoint" />
            <mxPoint x="670" y="210" as="targetPoint" />
          </mxGeometry>
        </mxCell>
        <mxCell id="TyNWA-aZAb7w46XQpe9P-21" value="Cuota" style="ellipse;whiteSpace=wrap;html=1;fillColor=#33FF33;" vertex="1" parent="1">
          <mxGeometry x="220" y="90" width="70" height="40" as="geometry" />
        </mxCell>
        <mxCell id="TyNWA-aZAb7w46XQpe9P-22" value="" style="endArrow=none;html=1;rounded=0;exitX=0.5;exitY=0;exitDx=0;exitDy=0;" edge="1" parent="1" source="TyNWA-aZAb7w46XQpe9P-4">
          <mxGeometry width="50" height="50" relative="1" as="geometry">
            <mxPoint x="210" y="180" as="sourcePoint" />
            <mxPoint x="260" y="130" as="targetPoint" />
          </mxGeometry>
        </mxCell>
        <mxCell id="TyNWA-aZAb7w46XQpe9P-23" value="" style="endArrow=none;html=1;rounded=0;exitX=0.5;exitY=0;exitDx=0;exitDy=0;entryX=1;entryY=0.5;entryDx=0;entryDy=0;" edge="1" parent="1" target="TyNWA-aZAb7w46XQpe9P-4">
          <mxGeometry width="50" height="50" relative="1" as="geometry">
            <mxPoint x="370" y="240" as="sourcePoint" />
            <mxPoint x="350" y="180" as="targetPoint" />
          </mxGeometry>
        </mxCell>
        <mxCell id="TyNWA-aZAb7w46XQpe9P-24" value="" style="endArrow=none;html=1;rounded=0;exitX=0;exitY=0.5;exitDx=0;exitDy=0;" edge="1" parent="1" source="TyNWA-aZAb7w46XQpe9P-4">
          <mxGeometry width="50" height="50" relative="1" as="geometry">
            <mxPoint x="180" y="290" as="sourcePoint" />
            <mxPoint x="170" y="230" as="targetPoint" />
          </mxGeometry>
        </mxCell>
        <mxCell id="TyNWA-aZAb7w46XQpe9P-25" value="" style="endArrow=none;html=1;rounded=0;entryX=0.75;entryY=1;entryDx=0;entryDy=0;exitX=0.5;exitY=0;exitDx=0;exitDy=0;" edge="1" parent="1" source="TyNWA-aZAb7w46XQpe9P-3">
          <mxGeometry width="50" height="50" relative="1" as="geometry">
            <mxPoint x="410" y="550" as="sourcePoint" />
            <mxPoint x="430" y="430" as="targetPoint" />
          </mxGeometry>
        </mxCell>
        <mxCell id="TyNWA-aZAb7w46XQpe9P-26" value="" style="endArrow=none;html=1;rounded=0;exitX=0.5;exitY=0;exitDx=0;exitDy=0;entryX=0.5;entryY=1;entryDx=0;entryDy=0;" edge="1" parent="1" source="TyNWA-aZAb7w46XQpe9P-5" target="TyNWA-aZAb7w46XQpe9P-2">
          <mxGeometry width="50" height="50" relative="1" as="geometry">
            <mxPoint x="429.38" y="350" as="sourcePoint" />
            <mxPoint x="430" y="280" as="targetPoint" />
          </mxGeometry>
        </mxCell>
        <mxCell id="TyNWA-aZAb7w46XQpe9P-32" value="" style="endArrow=none;html=1;rounded=0;exitX=1;exitY=0.5;exitDx=0;exitDy=0;" edge="1" parent="1" source="TyNWA-aZAb7w46XQpe9P-34">
          <mxGeometry width="50" height="50" relative="1" as="geometry">
            <mxPoint x="320" y="85" as="sourcePoint" />
            <mxPoint x="370" y="35" as="targetPoint" />
          </mxGeometry>
        </mxCell>
        <mxCell id="TyNWA-aZAb7w46XQpe9P-34" value="Son" style="rhombus;whiteSpace=wrap;html=1;fillColor=#FFFF66;" vertex="1" parent="1">
          <mxGeometry x="50" y="20" width="80" height="80" as="geometry" />
        </mxCell>
        <mxCell id="TyNWA-aZAb7w46XQpe9P-37" value="" style="endArrow=none;html=1;rounded=0;exitX=1;exitY=0.5;exitDx=0;exitDy=0;entryX=0.5;entryY=1;entryDx=0;entryDy=0;" edge="1" parent="1" target="TyNWA-aZAb7w46XQpe9P-34">
          <mxGeometry width="50" height="50" relative="1" as="geometry">
            <mxPoint x="90" y="200" as="sourcePoint" />
            <mxPoint x="330" y="175" as="targetPoint" />
          </mxGeometry>
        </mxCell>
        <mxCell id="TyNWA-aZAb7w46XQpe9P-38" value="DNI PK" style="ellipse;whiteSpace=wrap;html=1;fillColor=#33FF33;" vertex="1" parent="1">
          <mxGeometry x="550" y="60" width="70" height="40" as="geometry" />
        </mxCell>
        <mxCell id="TyNWA-aZAb7w46XQpe9P-39" value="Direccion" style="ellipse;whiteSpace=wrap;html=1;fillColor=#33FF33;" vertex="1" parent="1">
          <mxGeometry x="580" y="30" width="70" height="40" as="geometry" />
        </mxCell>
        <mxCell id="TyNWA-aZAb7w46XQpe9P-40" value="Nombre" style="ellipse;whiteSpace=wrap;html=1;fillColor=#33FF33;" vertex="1" parent="1">
          <mxGeometry x="550" width="70" height="40" as="geometry" />
        </mxCell>
        <mxCell id="TyNWA-aZAb7w46XQpe9P-41" value="" style="endArrow=none;html=1;rounded=0;exitX=1;exitY=0;exitDx=0;exitDy=0;entryX=0;entryY=0.5;entryDx=0;entryDy=0;" edge="1" parent="1" target="TyNWA-aZAb7w46XQpe9P-40">
          <mxGeometry width="50" height="50" relative="1" as="geometry">
            <mxPoint x="490" y="40" as="sourcePoint" />
            <mxPoint x="670" y="-40" as="targetPoint" />
          </mxGeometry>
        </mxCell>
        <mxCell id="TyNWA-aZAb7w46XQpe9P-42" value="" style="endArrow=none;html=1;rounded=0;exitX=1;exitY=0.75;exitDx=0;exitDy=0;entryX=0;entryY=0.5;entryDx=0;entryDy=0;" edge="1" parent="1" source="YKKnT6eRW2hwLSaF0dDO-1">
          <mxGeometry width="50" height="50" relative="1" as="geometry">
            <mxPoint x="520" y="70" as="sourcePoint" />
            <mxPoint x="580" y="50" as="targetPoint" />
          </mxGeometry>
        </mxCell>
        <mxCell id="TyNWA-aZAb7w46XQpe9P-43" value="" style="endArrow=none;html=1;rounded=0;exitX=0.933;exitY=0.992;exitDx=0;exitDy=0;entryX=0;entryY=0.5;entryDx=0;entryDy=0;exitPerimeter=0;" edge="1" parent="1" source="YKKnT6eRW2hwLSaF0dDO-1">
          <mxGeometry width="50" height="50" relative="1" as="geometry">
            <mxPoint x="462.5" y="82.5" as="sourcePoint" />
            <mxPoint x="552.5" y="77.5" as="targetPoint" />
          </mxGeometry>
        </mxCell>
        <mxCell id="TyNWA-aZAb7w46XQpe9P-44" value="hora salida" style="ellipse;whiteSpace=wrap;html=1;fillColor=#33FF33;" vertex="1" parent="1">
          <mxGeometry x="400" y="680" width="70" height="40" as="geometry" />
        </mxCell>
        <mxCell id="TyNWA-aZAb7w46XQpe9P-45" value="destino" style="ellipse;whiteSpace=wrap;html=1;fillColor=#33FF33;" vertex="1" parent="1">
          <mxGeometry x="490" y="650" width="70" height="40" as="geometry" />
        </mxCell>
        <mxCell id="TyNWA-aZAb7w46XQpe9P-46" value="fecha" style="ellipse;whiteSpace=wrap;html=1;fillColor=#33FF33;" vertex="1" parent="1">
          <mxGeometry x="310" y="660" width="70" height="40" as="geometry" />
        </mxCell>
        <mxCell id="TyNWA-aZAb7w46XQpe9P-47" value="" style="endArrow=none;html=1;rounded=0;exitX=0.75;exitY=1;exitDx=0;exitDy=0;entryX=0;entryY=0.5;entryDx=0;entryDy=0;" edge="1" parent="1" source="TyNWA-aZAb7w46XQpe9P-3">
          <mxGeometry width="50" height="50" relative="1" as="geometry">
            <mxPoint x="440" y="642.5" as="sourcePoint" />
            <mxPoint x="510.5" y="650" as="targetPoint" />
          </mxGeometry>
        </mxCell>
        <mxCell id="TyNWA-aZAb7w46XQpe9P-48" value="" style="endArrow=none;html=1;rounded=0;exitX=0.5;exitY=1;exitDx=0;exitDy=0;entryX=0;entryY=0.5;entryDx=0;entryDy=0;" edge="1" parent="1" source="TyNWA-aZAb7w46XQpe9P-3">
          <mxGeometry width="50" height="50" relative="1" as="geometry">
            <mxPoint x="370" y="672.5" as="sourcePoint" />
            <mxPoint x="440.5" y="680" as="targetPoint" />
          </mxGeometry>
        </mxCell>
        <mxCell id="TyNWA-aZAb7w46XQpe9P-49" value="" style="endArrow=none;html=1;rounded=0;exitX=0.25;exitY=1;exitDx=0;exitDy=0;" edge="1" parent="1" source="TyNWA-aZAb7w46XQpe9P-3">
          <mxGeometry width="50" height="50" relative="1" as="geometry">
            <mxPoint x="350" y="580" as="sourcePoint" />
            <mxPoint x="361" y="660" as="targetPoint" />
          </mxGeometry>
        </mxCell>
        <mxCell id="TyNWA-aZAb7w46XQpe9P-50" value="1" style="text;html=1;align=center;verticalAlign=middle;resizable=0;points=[];autosize=1;strokeColor=none;fillColor=none;" vertex="1" parent="1">
          <mxGeometry x="340" y="10" width="30" height="30" as="geometry" />
        </mxCell>
        <mxCell id="TyNWA-aZAb7w46XQpe9P-51" value="1" style="text;html=1;align=center;verticalAlign=middle;resizable=0;points=[];autosize=1;strokeColor=none;fillColor=none;" vertex="1" parent="1">
          <mxGeometry x="60" y="170" width="30" height="30" as="geometry" />
        </mxCell>
        <mxCell id="TyNWA-aZAb7w46XQpe9P-52" value="1" style="text;html=1;align=center;verticalAlign=middle;resizable=0;points=[];autosize=1;strokeColor=none;fillColor=none;" vertex="1" parent="1">
          <mxGeometry x="95" y="170" width="30" height="30" as="geometry" />
        </mxCell>
        <mxCell id="TyNWA-aZAb7w46XQpe9P-53" value="1" style="text;html=1;align=center;verticalAlign=middle;resizable=0;points=[];autosize=1;strokeColor=none;fillColor=none;" vertex="1" parent="1">
          <mxGeometry x="340" y="40" width="30" height="30" as="geometry" />
        </mxCell>
        <mxCell id="TyNWA-aZAb7w46XQpe9P-55" value="1:1" style="text;html=1;align=center;verticalAlign=middle;resizable=0;points=[];autosize=1;strokeColor=none;fillColor=none;" vertex="1" parent="1">
          <mxGeometry x="110" y="8" width="40" height="30" as="geometry" />
        </mxCell>
        <mxCell id="TyNWA-aZAb7w46XQpe9P-56" value="1" style="text;html=1;align=center;verticalAlign=middle;resizable=0;points=[];autosize=1;strokeColor=none;fillColor=none;" vertex="1" parent="1">
          <mxGeometry x="175" y="198" width="30" height="30" as="geometry" />
        </mxCell>
        <mxCell id="TyNWA-aZAb7w46XQpe9P-57" value="n" style="text;html=1;align=center;verticalAlign=middle;resizable=0;points=[];autosize=1;strokeColor=none;fillColor=none;" vertex="1" parent="1">
          <mxGeometry x="340" y="200" width="30" height="30" as="geometry" />
        </mxCell>
        <mxCell id="TyNWA-aZAb7w46XQpe9P-58" value="1" style="text;html=1;align=center;verticalAlign=middle;resizable=0;points=[];autosize=1;strokeColor=none;fillColor=none;" vertex="1" parent="1">
          <mxGeometry x="330" y="240" width="30" height="30" as="geometry" />
        </mxCell>
        <mxCell id="TyNWA-aZAb7w46XQpe9P-59" value="1" style="text;html=1;align=center;verticalAlign=middle;resizable=0;points=[];autosize=1;strokeColor=none;fillColor=none;" vertex="1" parent="1">
          <mxGeometry x="170" y="230" width="30" height="30" as="geometry" />
        </mxCell>
        <mxCell id="TyNWA-aZAb7w46XQpe9P-60" value="1:N" style="text;html=1;align=center;verticalAlign=middle;resizable=0;points=[];autosize=1;strokeColor=none;fillColor=none;" vertex="1" parent="1">
          <mxGeometry x="250" y="275" width="40" height="30" as="geometry" />
        </mxCell>
        <mxCell id="TyNWA-aZAb7w46XQpe9P-61" value="1" style="text;html=1;align=center;verticalAlign=middle;resizable=0;points=[];autosize=1;strokeColor=none;fillColor=none;" vertex="1" parent="1">
          <mxGeometry x="445" y="258" width="30" height="30" as="geometry" />
        </mxCell>
        <mxCell id="TyNWA-aZAb7w46XQpe9P-62" value="n" style="text;html=1;align=center;verticalAlign=middle;resizable=0;points=[];autosize=1;strokeColor=none;fillColor=none;" vertex="1" parent="1">
          <mxGeometry x="445" y="498" width="30" height="30" as="geometry" />
        </mxCell>
        <mxCell id="TyNWA-aZAb7w46XQpe9P-63" value="1" style="text;html=1;align=center;verticalAlign=middle;resizable=0;points=[];autosize=1;strokeColor=none;fillColor=none;" vertex="1" parent="1">
          <mxGeometry x="385" y="498" width="30" height="30" as="geometry" />
        </mxCell>
        <mxCell id="TyNWA-aZAb7w46XQpe9P-64" value="n" style="text;html=1;align=center;verticalAlign=middle;resizable=0;points=[];autosize=1;strokeColor=none;fillColor=none;" vertex="1" parent="1">
          <mxGeometry x="395" y="258" width="30" height="30" as="geometry" />
        </mxCell>
        <mxCell id="TyNWA-aZAb7w46XQpe9P-65" value="N:M" style="text;html=1;align=center;verticalAlign=middle;resizable=0;points=[];autosize=1;strokeColor=none;fillColor=none;" vertex="1" parent="1">
          <mxGeometry x="475" y="375" width="50" height="30" as="geometry" />
        </mxCell>
        <mxCell id="TyNWA-aZAb7w46XQpe9P-66" value="(0,1)" style="text;html=1;align=center;verticalAlign=middle;resizable=0;points=[];autosize=1;strokeColor=none;fillColor=none;" vertex="1" parent="1">
          <mxGeometry x="390" y="70" width="50" height="30" as="geometry" />
        </mxCell>
        <mxCell id="TyNWA-aZAb7w46XQpe9P-67" value="(0,1)" style="text;html=1;align=center;verticalAlign=middle;resizable=0;points=[];autosize=1;strokeColor=none;fillColor=none;" vertex="1" parent="1">
          <mxGeometry x="110" y="150" width="50" height="30" as="geometry" />
        </mxCell>
        <mxCell id="TyNWA-aZAb7w46XQpe9P-68" value="(1,n)" style="text;html=1;align=center;verticalAlign=middle;resizable=0;points=[];autosize=1;strokeColor=none;fillColor=none;" vertex="1" parent="1">
          <mxGeometry x="445" y="280" width="50" height="30" as="geometry" />
        </mxCell>
        <mxCell id="TyNWA-aZAb7w46XQpe9P-69" value="(1,n)" style="text;html=1;align=center;verticalAlign=middle;resizable=0;points=[];autosize=1;strokeColor=none;fillColor=none;" vertex="1" parent="1">
          <mxGeometry x="460" y="468" width="50" height="30" as="geometry" />
        </mxCell>
      </root>
    </mxGraphModel>
  </diagram>
</mxfile>
